<?xml version="1.0" standalone="no"?>
<!DOCTYPE svg PUBLIC "-//W3C//DTD SVG 20010904//EN"
 "http://www.w3.org/TR/2001/REC-SVG-20010904/DTD/svg10.dtd">
<svg version="1.0" xmlns="http://www.w3.org/2000/svg"
 width="1042.000000pt" height="1042.000000pt" viewBox="0 0 1042.000000 1042.000000"
 preserveAspectRatio="xMidYMid meet">

<g transform="translate(0.000000,1042.000000) scale(0.100000,-0.100000)"
fill="#000000" stroke="none">
<path d="M4860 9763 c-19 -1 -87 -8 -150 -14 -340 -32 -746 -125 -1086 -249
-360 -132 -646 -277 -974 -495 -987 -657 -1677 -1660 -1935 -2816 -125 -560
-143 -1173 -49 -1742 217 -1323 1005 -2485 2157 -3181 1048 -633 2300 -817
3502 -515 396 100 859 292 1210 504 1114 670 1887 1762 2145 3027 110 542 119
1129 24 1688 -136 807 -509 1596 -1052 2220 -117 135 -360 377 -487 486 -725
618 -1601 987 -2561 1079 -141 13 -634 19 -744 8z m2073 -2157 c485 -162 807
-552 899 -1090 27 -160 21 -446 -12 -601 -63 -294 -192 -579 -430 -945 -206
-316 -239 -411 -305 -875 -126 -881 -289 -1460 -483 -1716 -82 -108 -201 -173
-316 -173 -50 0 -75 7 -136 37 -229 110 -355 339 -485 877 -82 339 -114 461
-157 595 -34 107 -48 137 -81 172 -73 79 -202 94 -308 37 -90 -49 -111 -110
-179 -506 -69 -401 -136 -635 -240 -836 -91 -178 -187 -284 -310 -341 -71 -33
-210 -41 -291 -18 -158 46 -281 204 -403 519 -112 286 -184 609 -281 1268 -36
240 -90 488 -130 591 -43 111 -70 164 -174 339 -170 287 -274 590 -323 940
-16 121 -16 469 1 575 68 427 269 773 565 970 157 104 311 153 516 162 201 10
393 -22 760 -126 118 -33 247 -68 285 -77 39 -9 73 -20 77 -23 8 -7 -266 -124
-472 -201 -186 -70 -279 -94 -375 -94 -69 -1 -86 3 -129 26 l-48 28 7 -28 c9
-40 56 -94 106 -122 38 -22 59 -25 159 -28 247 -7 405 36 770 213 317 154 414
192 660 259 107 30 296 83 420 118 329 95 461 119 631 113 90 -3 124 -9 212
-39z"/>
</g>
</svg>
